<svg xmlns="http://www.w3.org/2000/svg" width="640" height="480" viewBox="0 0 640 480" role="img" aria-label="Connecting talent with opportunity">
  <!-- PLACEHOLDER hero illustration. Replace with real photography/graphic when ready. -->
  <defs>
    <linearGradient id="bg" x1="0" y1="0" x2="1" y2="1">
      <stop offset="0" stop-color="#13315c"/>
      <stop offset="1" stop-color="#0b2545"/>
    </linearGradient>
  </defs>
  <rect width="640" height="480" rx="16" fill="url(#bg)"/>
  <g opacity="0.9">
    <!-- network nodes -->
    <g stroke="#1f9aaa" stroke-width="2" opacity="0.5">
      <line x1="160" y1="140" x2="320" y2="240"/>
      <line x1="320" y1="240" x2="480" y2="150"/>
      <line x1="320" y1="240" x2="200" y2="350"/>
      <line x1="320" y1="240" x2="470" y2="340"/>
    </g>
    <g fill="#5ec4cf">
      <circle cx="160" cy="140" r="22"/>
      <circle cx="480" cy="150" r="22"/>
      <circle cx="200" cy="350" r="22"/>
      <circle cx="470" cy="340" r="22"/>
    </g>
    <circle cx="320" cy="240" r="34" fill="#1f9aaa"/>
    <g fill="#0b2545">
      <circle cx="160" cy="135" r="7"/><rect x="150" y="145" width="20" height="14" rx="7"/>
      <circle cx="480" cy="145" r="7"/><rect x="470" y="155" width="20" height="14" rx="7"/>
      <circle cx="200" cy="345" r="7"/><rect x="190" y="355" width="20" height="14" rx="7"/>
      <circle cx="470" cy="335" r="7"/><rect x="460" y="345" width="20" height="14" rx="7"/>
    </g>
    <path d="M320 228l8 8 14-16" stroke="#ffffff" stroke-width="4" fill="none" stroke-linecap="round" stroke-linejoin="round"/>
  </g>
  <text x="320" y="440" text-anchor="middle" font-family="Inter, Arial, sans-serif" font-size="16" fill="#94a3b8">Connecting talent with opportunity</text>
</svg>
